HIERARCHY
ROOT SpineBase
{
  OFFSET 0.000000 0.000000 0.000000
  CHANNELS 6 Xposition Yposition Zposition Zrotation Xrotation Yrotation
  JOINT SpineMid
  {
    OFFSET 0.000000 27.242837 0.000000
    CHANNELS 3 Zrotation Xrotation Yrotation
    JOINT SpineShoulder
    {
      OFFSET 0.485966 20.549224 -0.532384
      CHANNELS 3 Zrotation Xrotation Yrotation
      JOINT Neck
      {
        OFFSET 0.112285 6.932083 -0.427957
        CHANNELS 3 Zrotation Xrotation Yrotation
        JOINT Head
        {
          OFFSET 2.186311 14.179908 0.955603
          CHANNELS 3 Zrotation Xrotation Yrotation
          End Site
          {
            OFFSET 0 0 0
          }
        }
      }
      JOINT ShoulderLeft
      {
        OFFSET -9.657169 1.114664 -9.965758
        CHANNELS 3 Zrotation Xrotation Yrotation
        JOINT ElbowLeft
        {
          OFFSET 1.651208 -18.456992 -8.729334
          CHANNELS 3 Zrotation Xrotation Yrotation
          JOINT WristLeft
          {
            OFFSET 14.923886 -13.028586 -5.310168
            CHANNELS 3 Zrotation Xrotation Yrotation
            JOINT HandLeft
            {
              OFFSET 0.986392 -3.539955 0.832840
              CHANNELS 3 Zrotation Xrotation Yrotation
              JOINT HandTipLeft
              {
                OFFSET 4.569409 -3.333412 -0.574870
                CHANNELS 3 Zrotation Xrotation Yrotation
                End Site
                {
                  OFFSET 0 0 0
                }
              }
              JOINT ThumbLeft
              {
                OFFSET 2.999251 1.147040 1.204760
                CHANNELS 3 Zrotation Xrotation Yrotation
                End Site
                {
                  OFFSET 0 0 0
                }
              }
            }
          }
        }
      }
      JOINT ShoulderRight
      {
        OFFSET 13.984320 -2.161359 7.734335
        CHANNELS 3 Zrotation Xrotation Yrotation
        JOINT ElbowRight
        {
          OFFSET 9.000632 -19.156557 -2.651092
          CHANNELS 3 Zrotation Xrotation Yrotation
          JOINT WristRight
          {
            OFFSET 7.031076 -10.866590 -18.962171
            CHANNELS 3 Zrotation Xrotation Yrotation
            JOINT HandRight
            {
              OFFSET 2.699156 -3.284527 -5.507576
              CHANNELS 3 Zrotation Xrotation Yrotation
              JOINT HandTipRight
              {
                OFFSET 2.920176 -4.036356 -4.274371
                CHANNELS 3 Zrotation Xrotation Yrotation
                End Site
                {
                  OFFSET 0 0 0
                }
              }
              JOINT ThumbRight
              {
                OFFSET -4.073887 -0.609865 -1.334287
                CHANNELS 3 Zrotation Xrotation Yrotation
                End Site
                {
                  OFFSET 0 0 0
                }
              }
            }
          }
        }
      }
    }
  }
  JOINT HipLeft
  {
    OFFSET -5.878852 2.299384 -7.381223
    CHANNELS 3 Zrotation Xrotation Yrotation
    JOINT KneeLeft
    {
      OFFSET 15.656949 7.740592 -34.035862
      CHANNELS 3 Zrotation Xrotation Yrotation
      JOINT AnkleLeft
      {
        OFFSET 5.607007 -29.309816 -6.175642
        CHANNELS 3 Zrotation Xrotation Yrotation
        JOINT FootLeft
        {
          OFFSET 6.448466 -1.521541 -11.285642
          CHANNELS 3 Zrotation Xrotation Yrotation
          End Site
          {
            OFFSET 0 0 0
          }
        }
      }
    }
  }
  JOINT HipRight
  {
    OFFSET 7.082738 1.232542 1.622549
    CHANNELS 3 Zrotation Xrotation Yrotation
    JOINT KneeRight
    {
      OFFSET 27.790489 6.063672 -18.377249
      CHANNELS 3 Zrotation Xrotation Yrotation
      JOINT AnkleRight
      {
        OFFSET 1.005036 -30.219257 -13.537304
        CHANNELS 3 Zrotation Xrotation Yrotation
        JOINT FootRight
        {
          OFFSET 5.563881 -3.953836 -7.559622
          CHANNELS 3 Zrotation Xrotation Yrotation
          End Site
          {
            OFFSET 0 0 0
          }
        }
      }
    }
  }
}
MOTION
Frames: 12
Frame Time: 0.033333
-68.969280 26.876879 346.437990 -0.000000 0.000000 -34.785786 -0.000000 0.000000 34.785786 -0.000000 0.000000 0.000000 -0.000000 0.000000 0.000000 0.000000 0.000000 0.000000 -0.000000 0.000000 0.000000 -0.000000 0.000000 0.000000 -0.000000 0.000000 0.000000 -0.000000 0.000000 0.000000 0.000000 0.000000 0.000000 0.000000 0.000000 0.000000 -0.000000 0.000000 0.000000 -0.000000 0.000000 0.000000 -0.000000 0.000000 0.000000 -0.000000 0.000000 0.000000 0.000000 0.000000 0.000000 0.000000 0.000000 0.000000 -0.000000 0.000000 34.785786 -0.000000 0.000000 0.000000 -0.000000 0.000000 0.000000 0.000000 0.000000 0.000000 -0.000000 0.000000 34.785786 -0.000000 0.000000 0.000000 -0.000000 0.000000 0.000000 0.000000 0.000000 0.000000
-68.670744 26.858359 346.509002 0.516781 -0.053122 -34.444394 -0.456225 -0.248484 34.443644 -0.000000 0.000000 0.000000 -0.000000 0.000000 0.000000 0.000000 0.000000 0.000000 -0.000000 0.000000 0.000000 -0.000000 0.000000 0.000000 -3.096938 2.657227 0.084712 2.377130 -1.864341 1.252046 0.000000 0.000000 0.000000 0.000000 0.000000 0.000000 -2.495145 0.106132 0.401593 0.526503 -5.286438 -0.476988 1.646281 5.727859 0.854329 -0.732090 -2.505812 -1.350519 0.000000 0.000000 0.000000 0.000000 0.000000 0.000000 -0.456225 -0.248484 34.443644 -0.000000 0.000000 0.000000 -0.000000 0.000000 0.000000 0.000000 0.000000 0.000000 -0.456225 -0.248484 34.443644 -0.000000 0.000000 0.000000 1.284508 2.744336 1.295930 0.000000 0.000000 0.000000
-68.412146 26.842994 346.562690 0.951118 -0.092557 -34.138073 -0.839184 -0.457140 34.135493 0.902932 -0.102722 0.058222 -0.902828 0.103627 -0.056596 0.000000 0.000000 0.000000 -0.087183 -0.563745 -0.499974 -0.821490 0.660172 0.451386 -5.380745 4.981300 0.364768 4.137351 -3.526414 2.264605 0.000000 0.000000 0.000000 0.000000 0.000000 0.000000 -4.992833 0.281122 0.616057 0.822861 -8.751893 -0.982882 2.653854 9.544539 1.530571 -1.086882 -4.010658 -2.369734 0.000000 0.000000 0.000000 0.000000 0.000000 0.000000 -0.648501 0.099950 35.518620 -0.478856 -0.342648 -1.383964 -0.000000 0.000000 0.000000 0.000000 0.000000 0.000000 -0.669761 -0.493652 35.075381 -0.117670 0.127236 -0.938352 2.283366 5.020118 2.340322 0.000000 0.000000 0.000000
-68.193485 26.830785 346.599052 1.303061 -0.118312 -33.867063 -0.318617 -0.118850 33.893651 0.269089 -0.113205 0.054126 -1.241202 0.154236 -0.077450 0.000000 0.000000 0.000000 -0.058867 -0.812838 -0.718826 -1.194535 0.951990 0.658097 -6.843551 6.963332 0.771454 5.275706 -4.973460 2.995730 0.000000 0.000000 0.000000 0.000000 0.000000 0.000000 -6.077463 0.376569 0.731918 0.966577 -10.490226 -1.402029 2.999664 11.605903 2.234197 -1.130307 -4.872159 -3.195663 0.000000 0.000000 0.000000 0.000000 0.000000 0.000000 -0.878187 0.150204 35.811210 -0.674043 -0.473152 -1.950750 -0.000000 0.000000 0.000000 0.000000 0.000000 0.000000 -0.926111 -0.726476 35.197713 -0.124441 0.208411 -1.332747 3.049955 6.876342 3.185763 0.000000 0.000000 0.000000
-68.014761 26.821730 346.618089 1.572686 -0.130401 -33.631537 -0.332015 -0.126402 33.665278 0.278318 -0.149808 0.065005 -1.504303 0.203927 -0.093491 0.000000 0.000000 0.000000 0.017559 -1.039461 -0.917434 -1.541914 1.218492 0.851439 -7.479772 8.612428 1.251008 5.796621 -6.205087 3.410780 0.000000 0.000000 0.000000 0.000000 0.000000 0.000000 -6.265113 0.451530 0.721384 0.998368 -10.584765 -1.680836 2.679694 12.026881 3.070316 -0.874003 -5.249332 -3.914371 0.000000 0.000000 0.000000 0.000000 0.000000 0.000000 -1.043838 0.197495 36.053517 0.072655 -0.208383 -2.536018 -0.893556 -0.408759 0.107135 0.000000 0.000000 0.000000 -1.129390 -0.952506 35.305107 -0.096059 0.300949 -1.676945 3.623787 8.357572 3.871169 0.000000 0.000000 0.000000
-67.875975 26.815831 346.619801 1.760072 -0.128834 -33.431610 -0.298689 -0.119118 33.471592 0.247380 -0.185928 0.072205 -1.692210 0.252643 -0.104828 0.000000 0.000000 0.000000 0.142208 -1.243211 -1.096165 -1.863285 1.459845 1.030937 -7.276979 9.943845 1.764594 5.703200 -7.223889 3.480376 0.000000 0.000000 0.000000 0.000000 0.000000 0.000000 -5.555287 0.505617 0.581820 0.923612 -9.059516 -1.824538 1.696879 10.853344 4.074030 -0.277324 -5.191353 -4.591915 0.000000 0.000000 0.000000 0.000000 0.000000 0.000000 -1.144901 0.239902 36.244807 0.086919 -0.196043 -2.938046 -1.032131 -0.512761 0.115074 0.000000 0.000000 0.000000 -1.279233 -1.173379 35.397435 -0.734833 -0.061879 -1.676885 4.777489 9.966168 4.091918 0.000000 0.000000 0.000000
-67.868446 26.809510 346.577719 1.666379 -0.063911 -33.209906 -0.057645 -0.041694 33.253839 0.080684 -0.224613 0.068522 -1.675616 0.294939 -0.103909 0.000000 0.000000 0.000000 0.786754 -1.425761 -1.406134 -3.263804 1.691652 1.755370 -4.232934 9.669662 1.632180 4.415294 -5.942151 4.167369 0.000000 0.000000 0.000000 0.000000 0.000000 0.000000 -4.483456 0.815326 0.561426 1.154553 -7.894030 -3.081126 -0.869646 7.160156 6.003384 1.174125 -3.689493 -5.561894 0.000000 0.000000 0.000000 0.000000 0.000000 0.000000 -1.000235 0.312225 36.233560 0.125660 -0.097162 -3.142362 -1.129834 -0.656975 0.106236 0.000000 0.000000 0.000000 -1.098530 -1.058348 35.302285 -0.863672 -0.115662 -1.800866 5.951653 13.170620 5.494952 0.000000 0.000000 0.000000
-67.797314 26.796605 346.529508 1.701828 -0.021829 -33.083463 0.072261 -0.013753 33.131749 -0.050758 -0.251715 0.067060 -1.703691 0.327839 -0.105615 0.000000 0.000000 0.000000 0.956537 -1.858805 -1.535515 -3.763626 2.170697 2.082974 -2.340629 11.429310 2.290858 3.430878 -7.788482 3.084658 0.000000 0.000000 0.000000 0.000000 0.000000 0.000000 -1.703691 0.327839 -0.105615 0.285932 -3.770222 -3.102345 -2.029977 4.641677 6.517741 2.838354 -4.758923 -7.622058 0.000000 0.000000 0.000000 0.000000 0.000000 0.000000 -0.967553 0.335655 36.366469 0.166917 0.010642 -3.397243 -1.238886 -0.810035 0.097672 0.000000 0.000000 0.000000 -1.139842 -1.277475 35.358577 -0.767648 0.045755 -1.969343 5.506662 12.618254 5.749362 0.000000 0.000000 0.000000
-67.749269 26.786792 346.476598 1.715055 -0.003057 -33.136035 0.198269 0.010454 33.188884 -0.171947 -0.286740 0.065319 -1.714346 0.392939 -0.106327 0.000000 0.000000 0.000000 1.728136 -2.526510 -1.951358 -6.099428 2.854998 3.364197 5.098323 12.527834 2.679718 -1.430125 -8.043504 1.774832 0.000000 0.000000 0.000000 0.000000 0.000000 0.000000 0.268015 -1.590275 -1.283862 3.150010 8.431113 -3.728452 -5.955661 -2.260382 9.009578 5.893540 -4.258523 -9.340467 0.000000 0.000000 0.000000 0.000000 0.000000 0.000000 -0.955867 0.406844 36.567636 0.149243 0.036747 -3.537296 -1.282270 -0.907904 0.086672 0.000000 0.000000 0.000000 -1.275259 -1.718690 35.581238 -0.518711 0.413996 -2.086979 4.774940 10.014087 4.501199 0.000000 0.000000 0.000000
-67.708691 26.797439 346.439794 1.763344 -0.042822 -33.285945 0.333858 0.023923 33.347094 -0.242384 -0.328324 0.068103 -2.553945 1.899303 -0.255535 0.000000 0.000000 0.000000 1.199882 -2.088160 -1.747247 -5.189024 2.606420 2.872768 5.159763 11.881638 2.780782 -1.437166 -7.739223 1.267206 0.000000 0.000000 0.000000 0.000000 0.000000 0.000000 6.138483 -0.819310 -1.774055 -0.165409 16.797212 -2.640237 -7.604170 -3.580504 10.330382 8.973884 -2.669595 -8.994824 0.000000 0.000000 0.000000 0.000000 0.000000 0.000000 -1.014130 0.497207 36.821446 0.125078 -0.060884 -3.652948 -1.315389 -0.878837 0.099331 0.000000 0.000000 0.000000 -1.529672 -2.292070 35.902797 -0.010648 0.953676 -2.256836 4.927813 10.174968 4.620480 0.000000 0.000000 0.000000
-67.686671 26.852857 346.422326 1.742678 0.000744 -33.437681 0.368741 0.049499 33.497642 -0.342848 -0.325716 0.062770 -3.237544 3.036544 -0.350991 0.000000 0.000000 0.000000 0.059325 -1.558335 -1.131319 -2.936009 2.063703 1.648469 2.263461 10.972691 2.761494 2.382927 -9.022082 -0.654501 0.000000 0.000000 0.000000 0.000000 0.000000 0.000000 15.048966 1.944002 -1.974737 -8.132704 23.598734 0.471221 -6.990005 1.361875 11.554727 11.584798 0.315875 -5.876434 0.000000 0.000000 0.000000 0.000000 0.000000 0.000000 -0.959562 0.350549 36.936051 0.122110 0.008899 -3.611193 -1.254907 -0.840623 0.094746 0.000000 0.000000 0.000000 -1.775158 -3.152870 36.228630 0.704341 1.589438 -2.432741 5.299665 11.150589 5.211300 0.000000 0.000000 0.000000
-67.675720 26.936033 346.418431 1.627630 0.145124 -33.405040 0.378501 0.086371 33.456493 -0.470735 -0.279731 0.050566 -4.169740 4.143705 -0.407848 0.000000 0.000000 0.000000 -1.754859 -0.860750 -0.087267 0.232971 1.135020 -0.010895 0.849022 13.570682 4.000048 0.460966 -13.707301 -4.254544 0.000000 0.000000 0.000000 0.000000 0.000000 0.000000 26.572834 6.242841 -2.555024 -20.014827 30.446430 5.102180 -4.773412 13.687095 14.861183 12.711529 1.427188 -1.782335 0.000000 0.000000 0.000000 0.000000 0.000000 0.000000 -0.751766 0.018487 36.811385 0.157950 0.359587 -3.479190 -0.980737 -0.392679 1.119015 0.000000 0.000000 0.000000 -1.910676 -4.052366 36.302328 1.536689 2.360958 -2.591415 5.743377 12.654376 6.218039 0.000000 0.000000 0.000000
